<?xml version="1.0" encoding="UTF-8" standalone="no"?>
<!--
  ~ Copyright (C) 2018 Team Gateship-One
  ~ (Hendrik Borghorst & Frederik Luetkes)
  ~
  ~ The AUTHORS.md file contains a detailed contributors list:
  ~ <https://github.com/gateship-one/odyssey/blob/master/AUTHORS.md>
  ~
  ~ This program is free software: you can redistribute it and/or modify
  ~ it under the terms of the GNU General Public License as published by
  ~ the Free Software Foundation, either version 3 of the License, or
  ~ (at your option) any later version.
  ~
  ~ This program is distributed in the hope that it will be useful,
  ~ but WITHOUT ANY WARRANTY; without even the implied warranty of
  ~ MERCHANTABILITY or FITNESS FOR A PARTICULAR PURPOSE.  See the
  ~ GNU General Public License for more details.
  ~
  ~ You should have received a copy of the GNU General Public License
  ~ along with this program.  If not, see <http://www.gnu.org/licenses/>.
  ~
  -->

<svg
   xmlns:dc="http://purl.org/dc/elements/1.1/"
   xmlns:cc="http://creativecommons.org/ns#"
   xmlns:rdf="http://www.w3.org/1999/02/22-rdf-syntax-ns#"
   xmlns:svg="http://www.w3.org/2000/svg"
   xmlns="http://www.w3.org/2000/svg"
   version="1.1"
   id="svg5925"
   height="720"
   width="1280">
  <defs
     id="defs5927" />
  <metadata
     id="metadata5930">
    <rdf:RDF>
      <cc:Work
         rdf:about="">
        <dc:format>image/svg+xml</dc:format>
        <dc:type
           rdf:resource="http://purl.org/dc/dcmitype/StillImage" />
        <dc:title></dc:title>
      </cc:Work>
    </rdf:RDF>
  </metadata>
  <g
     transform="translate(41.272082,-171.40099)"
     id="layer1">
    <g
       transform="translate(0,-367.60953)"
       id="g4142">
      <path
         style="color:#000000;display:inline;overflow:visible;visibility:visible;fill:#feffff;fill-opacity:0.50196078;stroke:none;stroke-width:1.36533332;stroke-linecap:butt;stroke-linejoin:miter;stroke-miterlimit:4;stroke-dasharray:none;stroke-dashoffset:0;stroke-opacity:1;marker:none;enable-background:accumulate"
         d="m 657.82646,998.58679 c -5.43131,-2.37707 -9.23471,-4.46164 -14.10317,-7.72966 -6.27602,-4.21286 -6.78448,-4.46147 -8.68627,-4.24711 -3.4334,0.38699 -14.83068,7.4022 -18.64727,11.4777 -0.75441,0.80558 -1.26022,0.90355 -3.2513,0.62971 -5.50557,-0.75722 -7.16467,-1.49173 -10.22849,-4.5283 -1.60904,-1.59473 -2.01002,-3.40154 -3.15019,-4.02908 -0.22921,-0.12614 -1.77182,1.99321 -3.04921,3.04878 -1.27738,1.05556 -2.56889,1.9215 -2.87002,1.92429 -0.30113,0.003 -3.27347,0.42587 -6.6052,0.94017 -3.33173,0.51431 -9.17758,0.27814 -12.99077,0.54895 -3.81319,0.27082 -9.91674,1.34282 -11.87607,1.61524 -6.59056,0.91633 -9.38041,0.37593 -24.8409,-4.72505 -14.11433,-4.65682 -25.84395,-8.08769 -41.15467,-12.03757 -4.75005,-1.22542 -14.14218,-4.03785 -20.87142,-6.24983 -6.72922,-2.21199 -16.01341,-5.14785 -20.6315,-6.52413 -4.92968,-1.46916 -8.91853,-2.93645 -9.66075,-3.55372 -0.69531,-0.57825 -2.66575,-1.64703 -4.37874,-2.37506 -2.30485,-0.97958 -3.49673,-1.84168 -4.58465,-3.31614 -0.80857,-1.09585 -1.91654,-2.56377 -2.46217,-3.26205 l -0.99204,-1.26962 1.73094,-2.07181 c 5.04205,-6.03493 5.74155,-6.61815 9.86505,-8.22507 4.83208,-1.88307 15.52148,-7.48998 18.98928,-9.96045 1.64935,-1.17501 2.45758,-1.60769 4.18,-1.87272 0.62003,-0.0954 1.35851,-0.16908 2.29733,-0.24784 2.18237,-0.18308 6.12705,-0.83837 8.76597,-1.45621 18.98947,-4.44591 17.16987,-2.96157 21.43487,-3.72999 2.96522,-0.53425 5.45645,0.20696 16.46953,-1.19743 14.65471,-1.86875 16.90875,-1.79512 24.06882,0.78629 6.71488,2.42089 25.41459,4.25348 27.02008,2.64799 0.28741,-0.28739 0.23705,-1.19515 -0.13647,-2.4602 l -0.59194,-2.00475 -22.78123,-11.47932 -22.78124,-11.47931 -9.44398,-0.31111 c -8.26486,-0.27227 -20.02016,-1.01298 -32.14891,-2.02574 l -3.68848,-0.30799 -2.26262,-3.74279 -2.26261,-3.74279 -22.59715,-9.2199 c -20.00944,-8.1641 -26.48452,-11.1036 -56.54364,-25.66904 -35.8422,-17.36768 -37.67273,-18.40339 -40.53214,-22.93298 -0.64633,-1.02386 -1.78236,-2.09076 -2.52451,-2.37089 -1.1263,-0.42513 -1.48396,-1.00658 -2.16361,-3.51741 -0.53545,-1.97811 -1.52105,-3.91829 -2.87848,-5.66639 -1.13533,-1.46208 -2.66473,-3.68571 -3.39868,-4.94139 -0.73394,-1.25569 -3.73682,-5.62969 -6.67305,-9.72001 -2.93624,-4.09032 -8.62193,-11.67501 -9.41354,-12.86656 -1.75677,-2.64432 -0.8599,-14.19115 -0.63079,-14.87847 0.21203,-0.63609 13.29436,-3.92891 18.61354,-5.69324 4.06239,-1.34746 14.51269,-4.33579 23.63999,-5.77407 4.27214,-0.6732 9.75839,-2.45012 16.00583,-4.63903 1.18751,-0.41607 2.75287,-0.87165 3.47857,-1.01242 l 1.31946,-0.25593 0,-5.02879 c 0,-4.18119 -0.14152,-5.15632 -0.83966,-5.78546 -1.7274,-1.55671 -13.95482,-9.65697 -34.42583,-22.80596 -21.07444,-13.53658 -24.40802,-15.76311 -24.08471,-16.08642 0.22812,-0.22812 4.74464,2.25516 33.84464,18.60853 13.54859,7.61392 25.04031,13.84349 25.53716,13.84349 1.38984,0 2.30004,-2.34164 2.82776,-7.27488 0.2636,-2.46416 0.84683,-6.90607 1.29608,-9.87091 0.44925,-2.96485 0.72364,-5.46774 0.60975,-5.56199 -0.11389,-0.0943 -9.86909,-7.13878 -21.67823,-15.65451 -11.80914,-8.51572 -21.47117,-15.67484 -21.47117,-15.90916 0,-0.23432 0.16194,-0.42548 0.35986,-0.42481 0.73618,0.003 6.13292,3.50393 9.90077,6.42364 5.74313,4.45033 31.28679,22.36329 31.88978,22.36329 0.80515,0 1.70982,1.74249 2.80938,-0.955 l 0.86236,-2.11558 13.67502,-3.81528 c 7.0384,-1.9637 9.05425,-1.42596 18.72721,-1.99069 l 4.16471,0.40464 16.26181,7.35232 15.19686,7.8848 10.1198,5.78778 c 1.79462,1.02639 4.65264,3.40127 9.46814,5.90779 6.9389,3.61178 11.21145,5.14057 12.45697,6.69043 1.16455,1.44915 12.21068,-3.72283 16.24354,-1.68769 4.07339,2.05558 15.71773,16.76285 48.31331,42.00048 6.46316,5.00421 7.87863,1.09538 17.38874,8.44331 l 53.69244,41.48513 0.21367,5.18604 0.21368,5.18604 4.75198,4.7699 4.75199,4.76988 5.41516,0 c 3.4761,0 7.00136,-0.3293 9.84495,-0.91965 2.43639,-0.5058 6.69687,-1.04659 9.46773,-1.20176 4.79584,-0.26855 6.25786,-0.0748 30.42537,4.03275 l 25.38748,4.31485 3.00305,1.95657 c 3.44133,2.24212 7.83132,4.04955 8.4159,3.46498 0.21853,-0.21854 0.45649,-4.27678 0.5288,-9.01833 l 0.13145,-8.62098 c 0,0 -0.0625,-1.15565 0.33641,-1.14854 0.46645,0.008 0.34531,1.35629 0.34531,1.35629 l 1.13994,6.48594 c 0,0 0.11776,0.37613 0.27375,0.37974 0.27149,0.006 0.50643,-0.63816 0.50643,-0.63816 l -0.33866,-7.36179 c -0.0612,-1.33047 2.46015,3.37297 3.26407,2.82427 0.92223,-0.62946 0.28557,-6.57718 -0.0562,-10.17765 -0.6638,-6.9918 -0.39988,-9.04161 1.20359,-9.34813 0.64128,-0.12259 1.62056,0.15068 2.25505,0.62927 1.04037,0.78476 1.42075,0.90937 0.70595,1.72235 -0.42381,0.48201 -0.91107,1.33844 -1.0828,1.90318 -0.0523,0.17183 -0.84567,0.95376 -0.79633,2.15987 0.23607,5.77129 2.27914,21.2549 3.05117,26.08127 0.25327,1.58335 0.47089,4.28224 0.48361,5.99754 l 0.0231,3.11871 13.29501,7.90903 c 12.86986,7.65611 13.44843,8.06536 18.09303,12.79777 l 4.79802,4.88874 4.55813,-0.64161 c 10.66496,-1.50123 17.98436,-1.9234 33.34628,-1.9234 15.87855,0 19.46129,1.7355 26.15896,3.39508 4.61349,1.14314 9.37165,0.26255 12.44368,1.90682 1.99926,1.07008 3.54903,3.22866 5.10456,5.20931 3.37227,4.29371 3.37979,7.39229 5.00819,14.91833 0.85648,3.95836 2.07899,8.92432 2.71674,11.03545 1.59916,5.29401 3.96294,22.70907 3.97524,29.28709 0.007,3.22744 -0.27755,6.41425 -0.72568,8.15665 -0.73271,2.84906 -3.69136,7.83928 -4.72074,7.96228 -0.29771,0.0356 -3.24014,0.11144 -6.53883,0.16857 -18.51937,0.32077 -43.29833,1.74719 -58.05609,3.34203 -8.57648,0.92684 -17.04037,1.68907 -18.80865,1.69386 -5.81761,0.0157 -7.64891,0.67747 -11.07695,4.00274 -1.68007,1.6297 -3.90171,3.52352 -4.93699,4.2085 -3.97564,2.63045 -13.89994,7.70257 -15.1401,7.73783 -0.74104,0.0211 -2.423,-0.70842 -3.91172,-1.69658 -3.76885,-2.50162 -6.81049,-3.47016 -15.45707,-4.92197 -4.22226,-0.70893 -8.10866,-1.46661 -8.63645,-1.68371 -0.52778,-0.21711 -3.22666,-2.22895 -5.99753,-4.47075 -2.84685,-2.30328 -4.9619,-4.50866 -6.61054,-5.43575 -2.51279,-1.41306 -4.27414,-0.85286 -8.50323,-0.97869 -8.31969,-0.24752 -8.53281,-0.24105 -10.62973,0.3236 -2.04972,0.55193 -2.74989,1.57081 -4.96267,7.22157 -1.19204,3.04412 -4.08701,8.34916 -4.93491,9.04328 -0.32121,0.26294 -2.09538,1.01873 -3.94262,1.67952 -1.84724,0.66078 -4.65409,1.67893 -6.23743,2.26252 -1.58336,0.5836 -4.17429,1.1431 -5.75763,1.2432 -2.68879,0.17 -3.36972,-0.033 -10.31576,-3.07281 z M 395.36761,764.34671 c 0.4893,-0.26186 1.11327,-1.17949 1.38659,-2.03916 0.67808,-2.13271 1.91375,-15.83121 2.29107,-25.3984 0.28136,-7.13397 0.23138,-7.93923 -0.54068,-8.71128 -1.53431,-1.53431 -2.82347,-0.84666 -3.44815,1.83927 -0.6491,2.79091 -2.01203,18.64231 -2.42371,28.1884 -0.28377,6.58027 -0.28176,6.59729 0.78037,6.59729 0.58568,0 1.46521,-0.21425 1.95451,-0.47612 z m 29.96712,-24.60432 c 0.46309,-0.70677 1.42999,-3.89544 1.45066,-9.12614 0.0391,-9.88996 7e-4,-9.98758 0.14664,-13.59225 -0.22553,-1.72716 0.1474,-2.5977 -0.21609,-2.71864 -1.25506,-0.41763 -5.87622,-0.30701 -16.85085,1.85251 -11.82815,2.32747 -13.27225,4.10156 -12.96591,6.77317 0.14674,1.27976 0.26464,1.34142 2.31372,1.2099 1.18752,-0.0762 4.64209,-0.8734 7.67685,-1.77152 5.95483,-1.76229 12.92305,-3.204 13.56584,-2.80674 0.21894,0.13532 0.33293,4.56141 0.25331,9.83575 -0.14461,9.57823 -0.14342,9.59082 0.98794,10.51199 1.50238,1.22328 2.76446,1.16499 3.63789,-0.16803 z"
         id="path5032" />
      <path
         id="path4203"
         style="font-style:normal;font-variant:normal;font-weight:100;font-stretch:normal;font-size:80px;line-height:125%;font-family:Roboto;-inkscape-font-specification:'Roboto, Thin';text-align:start;letter-spacing:0px;word-spacing:0px;writing-mode:lr-tb;text-anchor:start;fill:#ffffff;fill-opacity:1;stroke:none;stroke-width:1px;stroke-linecap:butt;stroke-linejoin:miter;stroke-opacity:1"
         d="m 522.05557,1075.5762 q 0,8.7429 -4.3864,13.935 -4.38638,5.1622 -11.9656,5.1622 -7.60905,0 -12.02528,-5.1622 -4.38639,-5.1921 -4.38639,-13.935 l 0,-6.505 q 0,-8.7131 4.38639,-13.9052 4.38639,-5.1921 11.96561,-5.1921 7.5792,0 11.99544,5.1921 4.41623,5.1921 4.41623,13.9052 l 0,6.505 z m -1.61133,-6.5647 q 0,-7.9373 -3.90896,-12.6818 -3.87913,-4.7444 -10.89138,-4.7444 -7.01227,0 -10.86155,4.7444 -3.84929,4.7445 -3.84929,12.6818 l 0,6.5647 q 0,7.9969 3.87913,12.7414 3.87912,4.7445 10.89138,4.7445 7.01227,0 10.86155,-4.7445 3.87912,-4.7445 3.87912,-12.7414 l 0,-6.5647 z" />
      <path
         id="path4205"
         style="font-style:normal;font-variant:normal;font-weight:100;font-stretch:normal;font-size:80px;line-height:125%;font-family:Roboto;-inkscape-font-specification:'Roboto, Thin';text-align:start;letter-spacing:0px;word-spacing:0px;writing-mode:lr-tb;text-anchor:start;fill:#ffffff;fill-opacity:1;stroke:none;stroke-width:1px;stroke-linecap:butt;stroke-linejoin:miter;stroke-opacity:1"
         d="m 529.66462,1077.8738 q 0,-7.8478 3.16297,-12.264 3.16298,-4.4461 9.01151,-4.4461 3.87912,0 6.56467,1.7009 2.68554,1.671 4.29687,4.6549 l 0.0895,0 0,-20.0222 1.61133,0 0,46.5495 -1.55165,0 -0.0597,-4.9832 -0.0895,-0.03 q -1.55165,2.596 -4.29688,4.1178 -2.74522,1.5218 -6.62435,1.5218 -5.81868,0 -8.98166,-4.267 -3.13314,-4.2969 -3.13314,-11.9059 l 0,-0.6266 z m 1.67101,0.6266 q 0,6.8332 2.56618,10.7124 2.59603,3.8493 7.84777,3.8493 4.29687,0 7.01226,-1.8501 2.74523,-1.8799 4.02832,-5.1622 l 0,-15.1286 q -1.19357,-3.521 -3.72993,-5.8187 -2.50651,-2.3274 -7.25097,-2.3274 -5.25174,0 -7.8776,4.1178 -2.59603,4.1178 -2.59603,10.9809 l 0,0.6266 z" />
      <path
         id="path4207"
         style="font-style:normal;font-variant:normal;font-weight:100;font-stretch:normal;font-size:80px;line-height:125%;font-family:Roboto;-inkscape-font-specification:'Roboto, Thin';text-align:start;letter-spacing:0px;word-spacing:0px;writing-mode:lr-tb;text-anchor:start;fill:#ffffff;fill-opacity:1;stroke:none;stroke-width:1px;stroke-linecap:butt;stroke-linejoin:miter;stroke-opacity:1"
         d="m 573.1108,1088.1982 1.28309,3.4614 0.26856,-0.7161 11.15993,-29.183 1.79037,0 -14.35276,37.6573 q -1.34277,3.4614 -3.04361,5.5502 -1.67101,2.1186 -5.57997,2.1186 -0.56695,0 -1.25326,-0.1194 -0.6863,-0.09 -1.01454,-0.2089 l 0.26855,-1.5218 q 0.32824,0.09 0.9847,0.1791 0.65647,0.09 1.01455,0.09 2.8049,0 4.29687,-1.5815 1.52181,-1.5815 2.71539,-4.8042 l 1.93956,-5.2517 -12.86079,-32.1072 1.76053,0 10.62283,26.4377 z" />
      <path
         id="path4209"
         style="font-style:normal;font-variant:normal;font-weight:100;font-stretch:normal;font-size:80px;line-height:125%;font-family:Roboto;-inkscape-font-specification:'Roboto, Thin';text-align:start;letter-spacing:0px;word-spacing:0px;writing-mode:lr-tb;text-anchor:start;fill:#ffffff;fill-opacity:1;stroke:none;stroke-width:1px;stroke-linecap:butt;stroke-linejoin:miter;stroke-opacity:1"
         d="m 613.60287,1086.1393 q 0,-2.596 -2.14843,-4.6549 -2.14844,-2.0888 -7.69857,-3.3122 -5.87837,-1.2533 -8.41471,-3.1033 -2.50651,-1.8799 -2.50651,-5.759 0,-3.5509 2.86458,-5.8485 2.89442,-2.2977 7.93729,-2.2977 5.4606,0 8.50422,2.5065 3.04362,2.4767 3.04362,6.7139 l -1.64116,0 q 0,-3.2227 -2.62587,-5.4009 -2.62587,-2.2081 -7.28081,-2.2081 -4.62512,0 -6.92275,1.9395 -2.26779,1.9396 -2.26779,4.5356 0,2.596 1.90972,4.3566 1.90972,1.7306 7.8776,3.1033 5.52029,1.283 8.23568,3.4016 2.74523,2.1186 2.74523,6.0575 0,3.8791 -3.04363,6.2065 -3.04361,2.2977 -8.29535,2.2977 -5.75901,0 -8.92198,-2.5065 -3.16299,-2.5065 -3.16299,-6.326 l 1.61134,0 q 0.26855,3.909 3.25249,5.58 3.01378,1.6412 7.22114,1.6412 4.56543,0 7.13161,-2.059 2.59603,-2.0589 2.59603,-4.8638 z" />
      <path
         id="path4211"
         style="font-style:normal;font-variant:normal;font-weight:100;font-stretch:normal;font-size:80px;line-height:125%;font-family:Roboto;-inkscape-font-specification:'Roboto, Thin';text-align:start;letter-spacing:0px;word-spacing:0px;writing-mode:lr-tb;text-anchor:start;fill:#ffffff;fill-opacity:1;stroke:none;stroke-width:1px;stroke-linecap:butt;stroke-linejoin:miter;stroke-opacity:1"
         d="m 644.03907,1086.1393 q 0,-2.596 -2.14844,-4.6549 -2.14843,-2.0888 -7.69856,-3.3122 -5.87837,-1.2533 -8.41472,-3.1033 -2.50651,-1.8799 -2.50651,-5.759 0,-3.5509 2.86459,-5.8485 2.89442,-2.2977 7.93728,-2.2977 5.46061,0 8.50423,2.5065 3.04362,2.4767 3.04362,6.7139 l -1.64116,0 q 0,-3.2227 -2.62587,-5.4009 -2.62587,-2.2081 -7.28082,-2.2081 -4.62511,0 -6.92274,1.9395 -2.2678,1.9396 -2.2678,4.5356 0,2.596 1.90973,4.3566 1.90972,1.7306 7.8776,3.1033 5.52029,1.283 8.23568,3.4016 2.74522,2.1186 2.74522,6.0575 0,3.8791 -3.04362,6.2065 -3.04362,2.2977 -8.29535,2.2977 -5.75901,0 -8.92199,-2.5065 -3.16298,-2.5065 -3.16298,-6.326 l 1.61133,0 q 0.26856,3.909 3.2525,5.58 3.01377,1.6412 7.22114,1.6412 4.56542,0 7.13161,-2.059 2.59603,-2.0589 2.59603,-4.8638 z" />
      <path
         id="path4213"
         style="font-style:normal;font-variant:normal;font-weight:100;font-stretch:normal;font-size:80px;line-height:125%;font-family:Roboto;-inkscape-font-specification:'Roboto, Thin';text-align:start;letter-spacing:0px;word-spacing:0px;writing-mode:lr-tb;text-anchor:start;fill:#ffffff;fill-opacity:1;stroke:none;stroke-width:1px;stroke-linecap:butt;stroke-linejoin:miter;stroke-opacity:1"
         d="m 666.29927,1094.6734 q -6.08724,0 -10.11556,-4.3566 -4.02832,-4.3565 -4.02832,-11.1898 l 0,-1.9097 q 0,-7.1018 3.84928,-11.5777 3.87913,-4.4759 9.69781,-4.4759 5.55013,0 8.89214,3.5211 3.37186,3.4912 3.37186,9.6679 l 0,2.4767 -24.19976,0 0,0.3879 0,1.9097 q 0,5.9679 3.55089,9.9664 3.55089,3.9687 8.98166,3.9687 2.86459,0 5.10254,-0.8952 2.23795,-0.8952 4.50575,-3.0436 l 0.86534,1.2532 q -1.90972,2.0589 -4.38639,3.1928 -2.47667,1.1041 -6.08724,1.1041 z m -0.59679,-31.8983 q -4.9235,0 -8.11631,3.4912 -3.16299,3.4613 -3.72994,8.9518 l 22.49892,0 0,-0.9847 q 0,-5.0429 -2.89442,-8.2357 -2.89443,-3.2226 -7.75825,-3.2226 z" />
      <path
         id="path4215"
         style="font-style:normal;font-variant:normal;font-weight:100;font-stretch:normal;font-size:80px;line-height:125%;font-family:Roboto;-inkscape-font-specification:'Roboto, Thin';text-align:start;letter-spacing:0px;word-spacing:0px;writing-mode:lr-tb;text-anchor:start;fill:#ffffff;fill-opacity:1;stroke:none;stroke-width:1px;stroke-linecap:butt;stroke-linejoin:miter;stroke-opacity:1"
         d="m 693.66201,1088.1982 1.2831,3.4614 0.26855,-0.7161 11.15993,-29.183 1.79037,0 -14.35276,37.6573 q -1.34277,3.4614 -3.04361,5.5502 -1.67101,2.1186 -5.57997,2.1186 -0.56695,0 -1.25326,-0.1194 -0.6863,-0.09 -1.01454,-0.2089 l 0.26855,-1.5218 q 0.32824,0.09 0.9847,0.1791 0.65647,0.09 1.01455,0.09 2.8049,0 4.29687,-1.5815 1.52181,-1.5815 2.71539,-4.8042 l 1.93956,-5.2517 -12.86079,-32.1072 1.76053,0 10.62283,26.4377 z" />
    </g>
  </g>
</svg>
